<svg id="Layer_1" data-name="Layer 1" xmlns="http://www.w3.org/2000/svg" viewBox="0 0 1270 1080">
    <defs>
        <style>
            .cls-1,
            .cls-2 {
                fill-rule: evenodd;
                fill:#F2D03B
            }

            .cls-2 {
                fill: #04518C;
            }
        </style>
    </defs>
    <path class="cls-1"
        d="M728.88,0H790a79.53,79.53,0,0,1,65.94,35.06l424.8,629.85a79.52,79.52,0,0,1-7.43,98.34l-267.06,290a79.54,79.54,0,0,1-58.5,25.66H728.88a79.53,79.53,0,0,1-79.53-79.53V79.53A79.53,79.53,0,0,1,728.88,0Z"
        transform="translate(-4.38 0)" />
    <path class="cls-1"
        d="M569.82,0H508.71a79.52,79.52,0,0,0-65.93,35.06L18,664.91a79.51,79.51,0,0,0,7.43,98.34l267,290A79.56,79.56,0,0,0,351,1078.9H569.82a79.53,79.53,0,0,0,79.53-79.53V79.53A79.53,79.53,0,0,0,569.82,0Z"
        transform="translate(-4.38 0)" />
    <rect fill="#F2D03B" x="508.7" y="0.35" width="275.04" height="96.34" />
    <path class="cls-2"
        d="M1207.09,776.91l-8.35-75L727.41,430l7.15-230.46c-5.29-72.9-28.47-125.22-65-144.33-18.69-9.7-28.44-8.87-47.1,2.66-33.84,20.94-55,71.68-59.84,141.38l7.89,230.48L100,700l-8.1,75c-1.83,13.18,3.51,17.44,14.83,14.44l472.59-92.76,10.44,258.08L420.51,1078c-6.59,3.84-10.17,10-11.9,17.46l-.49,6.5H891.81l-.44-5.62c-1.75-7.6-5.41-13.69-12-17.5L709.75,955l9.66-258,472.89,94.25C1203.57,794.27,1208.9,790,1207.09,776.91Z"
        transform="translate(-4.38 0)" />
</svg>